<?xml version="1.0" encoding="utf-8"?>
<!-- Generator: Adobe Illustrator 24.1.2, SVG Export Plug-In . SVG Version: 6.00 Build 0)  -->
<svg version="1.1" id="Capa_1" xmlns="http://www.w3.org/2000/svg" xmlns:xlink="http://www.w3.org/1999/xlink" x="0px" y="0px"
	 viewBox="0 0 266 266" style="enable-background:new 0 0 266 266;" xml:space="preserve">
<style type="text/css">
	.st0{fill:url(#SVGID_1_);}
	.st1{fill:url(#SVGID_2_);}
	.st2{fill:url(#SVGID_3_);}
	.st3{fill:url(#SVGID_4_);}
	.st4{fill:none;stroke:#000000;stroke-linejoin:round;stroke-opacity:0.1;}
</style>
<linearGradient id="SVGID_1_" gradientUnits="userSpaceOnUse" x1="55.316" y1="-9.7285" x2="48.924" y2="294.69" gradientTransform="matrix(1 0 0 -1 0 268)">
	<stop  offset="0" style="stop-color:#FF004F"/>
	<stop  offset="1" style="stop-color:#FF0581"/>
</linearGradient>
<path class="st0" d="M80.1,121.6c-1.9-6.4-5.3-12.5-10.4-17.5c-16-16-41.8-16-57.8,0c-16,16-16,41.8,0,57.8
	c5.1,5.1,11.1,8.5,17.5,10.4c3.3,1.1,7.2,1.9,11.4,2.8c13.8,3,31.5,6.8,47.4,22.7c0,0,2.3-5.2,7.2-10.1c4.9-4.9,10.1-7.2,10.1-7.2
	c-15.9-15.9-19.7-33.5-22.7-47.4C82,128.8,81.2,125,80.1,121.6z"/>
<linearGradient id="SVGID_2_" gradientUnits="userSpaceOnUse" x1="216.6906" y1="-6.34" x2="210.2986" y2="298.0785" gradientTransform="matrix(1 0 0 -1 0 268)">
	<stop  offset="0" style="stop-color:#FF004F"/>
	<stop  offset="1" style="stop-color:#FF0581"/>
</linearGradient>
<path class="st1" d="M185.9,144.4c1.9,6.4,5.3,12.5,10.4,17.5c16,16,41.8,16,57.8,0c16-16,16-41.8,0-57.8
	c-5.1-5.1-11.1-8.5-17.5-10.4c-3.3-1.1-7.2-1.9-11.4-2.8c-13.8-3-31.5-6.8-47.4-22.7c0,0-2.3,5.2-7.2,10.1
	c-4.9,4.9-10.1,7.2-10.1,7.2c15.9,15.9,19.7,33.5,22.7,47.4C184,137.2,184.8,141,185.9,144.4z"/>
<linearGradient id="SVGID_3_" gradientUnits="userSpaceOnUse" x1="125.523" y1="-8.2543" x2="119.131" y2="296.1642" gradientTransform="matrix(1 0 0 -1 0 268)">
	<stop  offset="0" style="stop-color:#FF004F"/>
	<stop  offset="1" style="stop-color:#FF0581"/>
</linearGradient>
<path class="st2" d="M93.8,29.5c1.9-6.4,5.3-12.5,10.4-17.5c16-16,41.8-16,57.8,0c16,16,16,41.8,0,57.8c-5.1,5.1-11.1,8.5-17.5,10.4
	c-3.3,1.1-7.2,1.9-11.4,2.8c-13.8,3-31.5,6.8-47.4,22.7c0,0-2.3-5.2-7.2-10.1c-4.9-4.9-10.1-7.2-10.1-7.2C84.2,72.3,88,54.7,91,40.8
	C91.9,36.6,92.7,32.8,93.8,29.5z"/>
<linearGradient id="SVGID_4_" gradientUnits="userSpaceOnUse" x1="146.4837" y1="-7.8142" x2="140.0916" y2="296.6043" gradientTransform="matrix(1 0 0 -1 0 268)">
	<stop  offset="0" style="stop-color:#FF004F"/>
	<stop  offset="1" style="stop-color:#FF0581"/>
</linearGradient>
<path class="st3" d="M172.2,236.5c-1.9,6.4-5.3,12.5-10.4,17.5c-16,16-41.8,16-57.8,0c-16-16-16-41.8,0-57.8
	c5.1-5.1,11.1-8.5,17.5-10.4c3.3-1.1,7.2-1.9,11.4-2.8c13.8-3,31.5-6.8,47.4-22.7c0,0,2.3,5.2,7.2,10.1c4.9,4.9,10.1,7.2,10.1,7.2
	c-15.9,15.9-19.7,33.5-22.7,47.4C174.1,229.4,173.3,233.2,172.2,236.5z"/>
<path class="st4" d="M79.6,121.8L79.6,121.8L79.6,121.8c1.1,3.3,1.9,7.1,2.8,11.3l0,0c3,13.7,6.7,31.3,22.3,47.1
	c-0.1,0-0.2,0.1-0.3,0.1c-0.6,0.3-1.4,0.7-2.4,1.4c-1.9,1.2-4.5,3-7,5.5c-2.5,2.5-4.3,5-5.5,7c-0.6,1-1.1,1.8-1.4,2.4
	c-0.1,0.1-0.1,0.2-0.1,0.3c-15.9-15.6-33.4-19.4-47.1-22.3l0,0c-4.2-0.9-8-1.7-11.3-2.8l0,0l0,0c-6.3-1.8-12.3-5.2-17.3-10.2
	c-15.8-15.8-15.8-41.3,0-57.1c15.8-15.8,41.3-15.8,57.1,0C74.4,109.5,77.8,115.4,79.6,121.8z M186.4,144.2L186.4,144.2L186.4,144.2
	c-1.1-3.3-1.9-7.1-2.8-11.3l0,0c-3-13.7-6.7-31.3-22.3-47.1c0.1,0,0.2-0.1,0.3-0.1c0.6-0.3,1.4-0.7,2.4-1.4c1.9-1.2,4.5-3,7-5.5
	s4.3-5,5.5-7c0.6-1,1.1-1.8,1.4-2.4c0.1-0.1,0.1-0.2,0.1-0.3c15.9,15.6,33.4,19.4,47.1,22.3l0,0c4.2,0.9,8,1.7,11.3,2.8l0,0l0,0
	c6.3,1.8,12.3,5.2,17.3,10.2c15.8,15.8,15.8,41.3,0,57.1c-15.8,15.8-41.3,15.8-57.1,0C191.6,156.5,188.2,150.6,186.4,144.2z
	 M94.2,29.6L94.2,29.6L94.2,29.6c1.8-6.3,5.2-12.3,10.2-17.3c15.8-15.8,41.3-15.8,57.1,0c15.8,15.8,15.8,41.3,0,57.1
	c-5,5-11,8.4-17.3,10.2v0l0,0c-3.3,1.1-7.1,1.9-11.3,2.8l0,0c-13.7,3-31.3,6.7-47.1,22.3c0-0.1-0.1-0.2-0.1-0.3
	c-0.3-0.6-0.7-1.4-1.4-2.4c-1.2-1.9-3-4.5-5.5-7c-2.5-2.5-5-4.3-7-5.5c-1-0.6-1.8-1.1-2.4-1.4c-0.1-0.1-0.2-0.1-0.3-0.1
	C84.7,72.2,88.5,54.7,91.5,41l0,0C92.4,36.7,93.2,32.9,94.2,29.6z M171.8,236.4L171.8,236.4L171.8,236.4
	c-1.8,6.3-5.2,12.3-10.2,17.3c-15.8,15.8-41.3,15.8-57.1,0c-15.8-15.8-15.8-41.3,0-57.1c5-5,11-8.4,17.3-10.2l0,0l0,0
	c3.3-1.1,7.1-1.9,11.3-2.8l0,0c13.7-3,31.3-6.7,47.1-22.3c0,0.1,0.1,0.2,0.1,0.3c0.3,0.6,0.7,1.4,1.4,2.4c1.2,1.9,3,4.5,5.5,7
	c2.5,2.5,5,4.3,7,5.5c1,0.6,1.8,1.1,2.4,1.4c0.1,0.1,0.2,0.1,0.3,0.1c-15.6,15.9-19.4,33.4-22.3,47.1l0,0
	C173.6,229.3,172.8,233.1,171.8,236.4z"/>
</svg>
